PathFileType	4	(X/Y/Z)	Kaydara	
DataRate	CameraRate	NumFrames	NumMarkers	Units	OrigDataRate	OrigDataStartFrame	OrigNumFrames	
120.00	120.00	6	30	mm	120.00	2136	2847	
Frame#	Time	reference			Pelvis			Left_hip			Left_knee			Left_ankle			Left_foot			Left_foot_End			Right_hip			Right_knee			Right_ankle			Right_foot			Right_foot_End			Spine1			Spine2			Spine3			Neck			Head			Head_End			Left_collar			Left_shoulder			Left_elbow			Left_wrist			Left_palm			Left_palm_End			Right_collar			Right_shoulder			Right_elbow			Right_wrist			Right_palm			Right_palm_End			
		X1	Y1	Z1	X2	Y2	Z2	X3	Y3	Z3	X4	Y4	Z4	X5	Y5	Z5	X6	Y6	Z6	X7	Y7	Z7	X8	Y8	Z8	X9	Y9	Z9	X10	Y10	Z10	X11	Y11	Z11	X12	Y12	Z12	X13	Y13	Z13	X14	Y14	Z14	X15	Y15	Z15	X16	Y16	Z16	X17	Y17	Z17	X18	Y18	Z18	X19	Y19	Z19	X20	Y20	Z20	X21	Y21	Z21	X22	Y22	Z22	X23	Y23	Z23	X24	Y24	Z24	X25	Y25	Z25	X26	Y26	Z26	X27	Y27	Z27	X28	Y28	Z28	X29	Y29	Z29	X30	Y30	Z30	

2136	17.792	0.00000	0.00000	0.00000	679.12003	930.13000	-911.88004	591.82745	877.83630	-899.26362	641.79901	520.10553	-1043.63274	808.79794	248.20710	-757.23506	756.64645	157.70594	-853.69161	756.64645	157.70594	-853.69161	697.65504	828.78505	-874.47723	818.96378	505.19026	-1046.76094	894.41182	118.60521	-895.57937	959.29118	44.92424	-1007.00998	959.29118	44.92424	-1007.00998	722.02718	1045.80758	-928.50373	772.49861	1173.47503	-943.19282	799.82751	1221.47672	-953.28634	913.85542	1399.89125	-971.07299	954.73639	1492.42153	-988.96631	954.73639	1492.42153	-988.96631	791.76179	1356.53538	-967.01560	700.83650	1452.56174	-972.24555	532.60898	1272.64776	-1045.02138	379.86712	1186.30976	-1245.10281	339.77408	1142.97288	-1311.32979	339.77408	1142.97288	-1311.32979	924.57137	1285.31253	-931.90256	1046.00502	1271.97118	-919.11726	956.63678	1027.41597	-951.61847	822.70330	1070.41133	-1181.21555	801.73537	1097.58515	-1264.13811	801.73537	1097.58515	-1264.13811 
2137	17.800	0.00000	0.00000	0.00000	679.86000	930.42999	-912.26997	592.59298	878.11214	-899.57714	642.14186	520.26708	-1043.80866	808.91219	248.25091	-757.38958	756.76740	157.74620	-853.84642	756.76740	157.74620	-853.84642	698.45626	829.08776	-874.89020	818.25053	504.72485	-1046.78876	893.34196	118.22608	-895.20958	958.24501	44.54414	-1006.62575	958.24501	44.54414	-1006.62575	722.72098	1046.12006	-928.92579	773.14907	1173.80276	-943.63125	800.46253	1221.81437	-953.71935	914.45629	1400.25898	-971.42302	955.31724	1492.80753	-989.26749	955.31724	1492.80753	-989.26749	792.37088	1356.88055	-967.35909	701.51974	1452.98317	-972.47571	533.30049	1273.01237	-1045.13006	380.46566	1186.53933	-1245.08213	340.35435	1143.14764	-1311.26215	340.35435	1143.14764	-1311.26215	925.20202	1285.65674	-932.32964	1046.65336	1272.35499	-919.67181	957.09344	1027.83552	-951.91325	823.25409	1070.68284	-1181.59288	801.95155	1097.76833	-1264.45904	801.95155	1097.76833	-1264.45904 
2138	17.808	0.00000	0.00000	0.00000	680.46997	930.72998	-912.61002	593.22450	878.39308	-899.84775	642.29577	520.42752	-1043.94348	808.88895	248.31818	-757.50982	756.74153	157.81424	-853.96597	756.74153	157.81424	-853.96597	699.11915	829.38623	-875.26075	817.97822	504.57720	-1046.96602	892.82866	118.12448	-895.15044	957.73847	44.44191	-1006.56226	957.73847	44.44191	-1006.56226	723.29339	1046.43085	-929.28738	773.68334	1174.12807	-943.99750	800.98046	1222.15128	-954.07463	914.91969	1400.64134	-971.67070	955.75213	1493.21353	-989.45780	955.75213	1493.21353	-989.45780	792.84753	1357.22360	-967.62864	702.01077	1453.34513	-972.64454	533.76718	1273.31194	-1045.08765	380.91356	1186.66888	-1244.95173	340.81645	1143.21371	-1311.09869	340.81645	1143.21371	-1311.09869	925.70170	1286.01767	-932.65025	1047.16358	1272.74825	-920.05971	957.45211	1028.24362	-951.99080	823.77104	1070.79216	-1181.81810	802.17119	1097.77815	-1264.63975	802.17119	1097.77815	-1264.63975 
2139	17.817	0.00000	0.00000	0.00000	681.01997	930.96001	-912.94998	593.79662	878.59560	-900.14945	642.53809	520.53617	-1044.12383	809.06664	248.39040	-757.68719	756.91018	157.89354	-854.14508	756.91018	157.89354	-854.14508	699.71981	829.60979	-875.64359	818.00139	504.49188	-1047.16295	892.72602	118.08312	-895.17358	957.64156	44.40442	-1006.58461	957.64156	44.40442	-1006.58461	723.80174	1046.67758	-929.61838	774.14869	1174.39439	-944.30567	801.42970	1222.43056	-954.36459	915.31245	1400.96823	-971.84300	956.11766	1493.56362	-989.57171	956.11766	1493.56362	-989.57171	793.25409	1357.50712	-967.85061	702.40683	1453.61820	-972.87641	534.16717	1273.56821	-1045.28690	381.34367	1186.75811	-1245.10153	341.29343	1143.23750	-1311.23385	341.29343	1143.23750	-1311.23385	926.12454	1286.32805	-932.87938	1047.58850	1273.05119	-920.31676	957.64472	1028.58775	-951.90792	823.98771	1070.82258	-1181.80708	802.15461	1097.68584	-1264.60746	802.15461	1097.68584	-1264.60746 
2140	17.825	0.00000	0.00000	0.00000	681.51001	931.15997	-913.28003	594.31444	878.75341	-900.46276	642.71879	520.59553	-1044.30595	809.18868	248.44036	-757.84415	757.03416	157.94304	-854.30265	757.03416	157.94304	-854.30265	700.26875	829.80412	-876.01858	817.97676	504.41289	-1047.41418	892.55883	118.05096	-895.23583	957.49109	44.37599	-1006.63959	957.49109	44.37599	-1006.63959	724.23520	1046.90203	-929.92357	774.52378	1174.64516	-944.58180	801.78478	1222.69542	-954.62770	915.59864	1401.28335	-972.04119	956.37060	1493.89925	-989.73926	956.37060	1493.89925	-989.73926	793.55714	1357.77111	-968.09074	702.69478	1453.86530	-973.16638	534.47516	1273.81567	-1045.62431	381.74365	1186.76336	-1245.40389	341.74454	1143.16017	-1311.51276	341.74454	1143.16017	-1311.51276	926.44728	1286.64037	-933.09601	1047.91460	1273.38663	-920.54149	957.80973	1028.93218	-951.74080	824.32406	1070.68461	-1181.82754	802.35150	1097.37310	-1264.64755	802.35150	1097.37310	-1264.64755 
2141	17.833	0.00000	0.00000	0.00000	682.11998	931.38000	-913.63998	594.95177	878.93229	-900.80491	643.01462	520.68045	-1044.52856	809.49066	248.55542	-758.04170	757.33278	158.06851	-854.50816	757.33278	158.06851	-854.50816	700.93821	830.01140	-876.44326	817.92500	504.31202	-1047.74733	892.47279	118.00409	-895.41519	957.40873	44.33820	-1006.82281	957.40873	44.33820	-1006.82281	724.79094	1047.14780	-930.24355	775.02472	1174.91745	-944.85858	802.26765	1222.98149	-954.88756	916.01803	1401.61730	-972.22456	956.76649	1494.25008	-989.88831	956.76649	1494.25008	-989.88831	793.99215	1358.05552	-968.33786	703.06849	1454.08831	-973.47735	534.76052	1274.06674	-1045.79969	382.02620	1186.99120	-1245.56700	342.05161	1143.29798	-1311.63125	342.05161	1143.29798	-1311.63125	926.89412	1286.97386	-933.28834	1048.36197	1273.72529	-920.73354	958.21885	1029.25673	-951.71093	824.70869	1070.67441	-1181.84396	802.72388	1097.23943	-1264.70040	802.72388	1097.23943	-1264.70040 
